<?xml version="1.0" standalone="no"?>
<!DOCTYPE svg PUBLIC "-//W3C//DTD SVG 20010904//EN"
 "http://www.w3.org/TR/2001/REC-SVG-20010904/DTD/svg10.dtd">
<svg version="1.0" xmlns="http://www.w3.org/2000/svg"
 width="255.000000pt" height="255.000000pt" viewBox="0 0 255.000000 255.000000"
 preserveAspectRatio="xMidYMid meet">

<g transform="translate(0.000000,255.000000) scale(0.100000,-0.100000)"
fill="#000000" stroke="none">
<path d="M1562 2013 c-19 -37 -40 -78 -48 -90 l-14 -23 -54 30 c-29 17 -62 30
-73 30 -34 0 -333 -128 -364 -156 -15 -14 -24 -4 -93 103 l-76 118 0 -113 0
-113 58 -92 c32 -51 66 -113 76 -139 10 -26 22 -51 28 -54 5 -4 -2 -19 -19
-37 -17 -19 -20 -26 -8 -18 11 8 3 -1 -17 -20 -37 -34 -37 -34 -28 -83 10 -47
50 -128 70 -141 18 -11 11 -21 -30 -44 -34 -19 -39 -25 -30 -41 9 -16 5 -22
-22 -36 -18 -9 -40 -22 -48 -29 -13 -12 -23 -4 -68 51 l-52 64 55 0 c62 0 95
22 95 65 0 14 -9 34 -20 45 -18 18 -33 20 -143 20 -67 0 -152 -3 -190 -7 l-67
-6 0 -58 0 -59 54 0 c61 0 57 5 76 -93 11 -55 10 -60 -9 -78 -14 -13 -21 -32
-21 -57 0 -43 14 -67 50 -85 17 -8 28 -26 35 -53 13 -53 23 -64 106 -119 66
-43 114 -60 91 -33 -5 7 -6 22 -2 33 11 30 20 -31 20 -134 l0 -86 51 88 51 87
51 0 c29 0 86 6 127 14 43 8 136 14 220 14 l146 0 54 -92 55 -91 3 92 c3 92 3
93 30 99 80 18 101 26 134 51 59 45 91 90 84 117 -3 13 1 40 9 60 16 38 20 90
6 82 -4 -3 -16 -32 -25 -64 -9 -32 -23 -67 -31 -78 -8 -10 -15 -25 -15 -33 0
-11 3 -11 18 -1 9 7 -4 -8 -29 -33 -50 -50 -130 -81 -191 -75 l-33 3 3 55 c2
30 -1 74 -6 97 l-10 43 64 64 c68 70 137 112 204 122 l42 7 -7 -32 c-5 -25 -3
-31 10 -31 13 0 16 8 13 38 -3 37 -3 37 -45 36 -72 -1 -166 -48 -218 -110 -26
-30 -53 -54 -60 -54 -7 0 -25 20 -39 45 -26 44 -26 45 -7 64 31 31 51 76 44
99 -4 18 -1 22 16 22 12 0 24 6 27 13 3 9 16 12 35 9 16 -2 104 -1 194 3 l165
7 0 59 0 59 -59 0 c-51 0 -59 2 -55 18 3 9 -13 43 -36 76 -35 52 -40 65 -40
117 0 54 2 59 25 65 13 3 30 12 36 20 17 21 7 29 -151 126 l-135 83 -5 124 -5
123 -33 -69z m-175 -79 c-3 -3 -12 -4 -19 -1 -8 3 -5 6 6 6 11 1 17 -2 13 -5z
m-47 -14 c-8 -5 -19 -10 -25 -10 -5 0 -3 5 5 10 8 5 20 10 25 10 6 0 3 -5 -5
-10z m120 -26 c0 -2 -9 0 -20 6 -11 6 -20 13 -20 16 0 2 9 0 20 -6 11 -6 20
-13 20 -16z m-200 -4 c-8 -5 -19 -10 -25 -10 -5 0 -3 5 5 10 8 5 20 10 25 10
6 0 3 -5 -5 -10z m-50 -20 c-8 -5 -19 -10 -25 -10 -5 0 -3 5 5 10 8 5 20 10
25 10 6 0 3 -5 -5 -10z m-50 -20 c-8 -5 -19 -10 -25 -10 -5 0 -3 5 5 10 8 5
20 10 25 10 6 0 3 -5 -5 -10z m-87 -76 c37 -19 117 -83 117 -93 0 -4 -16 -15
-35 -24 l-34 -16 -16 33 c-20 41 -71 103 -79 95 -3 -3 4 -26 15 -50 55 -111
53 -101 19 -94 -29 6 -30 6 -19 -18 9 -19 8 -31 -4 -53 l-15 -29 -13 30 c-21
52 -23 129 -4 184 9 28 21 51 26 51 6 0 24 -7 42 -16z m222 4 c-11 -6 -31 -20
-44 -32 -14 -12 -21 -14 -16 -6 17 32 39 50 59 50 21 -1 21 -1 1 -12z m401
-29 c3 -6 -5 -3 -20 6 -14 10 -26 19 -26 22 0 7 39 -17 46 -28z m-469 -51 c-3
-8 -6 -5 -6 6 -1 11 2 17 5 13 3 -3 4 -12 1 -19z m74 -9 l29 -20 0 22 0 22 23
-20 c12 -11 44 -29 71 -39 28 -10 51 -25 54 -36 4 -16 8 -15 37 11 52 45 185
89 185 61 0 -5 -4 -10 -9 -10 -13 0 -113 -77 -123 -94 -6 -11 -3 -13 15 -9
l22 6 -24 -26 c-22 -24 -23 -28 -9 -44 9 -10 19 -28 23 -41 7 -25 25 -20 25 8
0 10 7 20 15 24 28 10 16 28 -15 24 l-31 -5 32 33 c18 18 28 37 24 44 -7 11
41 70 57 70 14 0 9 -119 -8 -158 -8 -20 -29 -51 -46 -69 -27 -28 -30 -36 -24
-69 4 -20 17 -45 29 -55 l22 -17 -27 -7 c-23 -6 -27 -11 -22 -31 5 -18 2 -24
-10 -24 -9 0 -16 -8 -16 -19 0 -11 -9 -23 -22 -27 -12 -3 -30 -15 -41 -25 -33
-31 -107 -51 -210 -56 -80 -5 -100 -3 -110 9 -7 9 -31 18 -55 21 -24 3 -61 17
-82 32 -55 38 -113 126 -116 174 -1 21 -4 44 -8 50 -4 6 4 13 18 17 16 4 30
19 41 42 50 113 107 176 178 197 26 8 54 12 61 9 10 -4 12 2 9 20 -6 31 0 32
38 5z m479 -156 c0 -21 -7 -74 -15 -118 -8 -44 -14 -81 -15 -82 -1 -10 -79 -1
-87 10 -25 31 -21 55 13 88 19 19 40 52 46 74 19 68 58 87 58 28z m53 -117 c4
-10 1 -13 -8 -9 -8 3 -12 9 -9 14 7 12 11 11 17 -5z m-36 -18 c-3 -8 -6 -5 -6
6 -1 11 2 17 5 13 3 -3 4 -12 1 -19z m-1068 -252 c19 -19 38 -33 42 -30 4 2
17 -9 28 -25 19 -26 19 -28 3 -27 -17 1 -162 102 -162 113 0 6 17 -5 56 -34
47 -35 48 -27 1 18 -23 22 -33 36 -22 31 11 -6 35 -26 54 -46z m18 -88 c3 -7
-21 9 -54 35 -33 25 -63 43 -67 40 -3 -4 -6 1 -6 10 0 12 16 5 60 -29 33 -25
63 -50 67 -56z m373 46 l-65 -13 70 4 c64 4 59 2 -55 -20 -69 -13 -133 -22
-144 -19 -12 4 -16 2 -12 -5 4 -6 1 -11 -8 -11 -8 0 -23 -3 -33 -6 -10 -3 -4
3 12 15 54 37 172 69 260 69 34 0 31 -2 -25 -14z m270 -28 c0 -2 -16 -15 -35
-30 -34 -26 -34 -26 -45 -6 -6 11 -8 25 -5 30 6 9 85 15 85 6z m-700 -62 c0
-6 8 -14 18 -18 9 -3 35 -16 57 -29 35 -19 40 -27 40 -57 0 -26 -4 -34 -15
-32 -8 2 -3 -9 13 -23 15 -14 25 -30 22 -36 -9 -14 -21 -11 -52 14 -36 29 -88
53 -76 35 4 -7 9 -17 10 -23 1 -5 6 -27 11 -47 8 -29 7 -35 -4 -31 -17 6 -23
26 -28 89 -3 27 -14 83 -25 124 -26 94 -26 94 4 68 14 -12 25 -27 25 -34z
m405 31 c-77 -13 -141 -22 -143 -20 -8 8 190 42 248 43 19 0 -28 -10 -105 -23z
m-314 -12 c13 -16 12 -17 -3 -4 -10 7 -18 15 -18 17 0 8 8 3 21 -13z m109 -27
c0 -2 -9 -6 -20 -9 -11 -3 -18 -1 -14 4 5 9 34 13 34 5z m410 -5 c0 -6 -4 -13
-10 -16 -5 -3 -10 1 -10 9 0 9 5 16 10 16 6 0 10 -4 10 -9z m-658 -52 c12 -63
8 -73 -19 -54 -17 12 -23 26 -23 54 0 68 31 68 42 0z m556 14 c-2 -10 -13 -19
-26 -21 -12 -2 -22 -8 -22 -13 0 -6 10 -9 22 -7 15 2 24 -3 26 -14 2 -13 -3
-18 -17 -18 -11 0 -23 -4 -26 -10 -3 -5 3 -10 14 -10 14 0 21 -6 21 -20 0 -13
-7 -20 -19 -20 -11 0 -26 -3 -34 -6 -18 -6 -23 8 -32 88 -7 62 -6 63 68 67 22
1 28 -3 25 -16z m-110 -25 c3 -14 -3 -18 -27 -18 -41 0 -60 -33 -36 -60 13
-14 23 -17 40 -10 24 9 35 4 35 -16 0 -17 -51 -33 -76 -23 -28 10 -54 47 -54
77 0 36 44 74 83 70 21 -2 33 -9 35 -20z m-135 -20 c3 -13 9 -47 13 -75 6 -49
5 -53 -14 -53 -17 0 -22 10 -31 65 -7 36 -9 70 -6 75 11 18 33 10 38 -12z
m379 -35 c28 -27 36 -65 19 -92 -12 -19 -86 -9 -112 15 -21 19 -26 73 -7 92
21 21 70 14 100 -15z m66 -64 c4 -53 -3 -49 -17 9 -7 32 -6 42 2 39 7 -2 13
-23 15 -48z m-491 -131 c-3 -8 -6 -5 -6 6 -1 11 2 17 5 13 3 -3 4 -12 1 -19z
m30 -34 c-3 -3 -12 -4 -19 -1 -8 3 -5 6 6 6 11 1 17 -2 13 -5z"/>
<path d="M1127 1574 c-15 -15 -6 -24 24 -24 20 0 29 4 27 13 -5 14 -40 21 -51
11z"/>
<path d="M1400 1526 c0 -16 57 -39 65 -26 8 12 -23 40 -46 40 -10 0 -19 -6
-19 -14z"/>
<path d="M1071 1484 c-12 -15 -21 -39 -21 -54 0 -35 35 -80 62 -80 16 0 18 -3
10 -13 -15 -18 8 -61 34 -65 27 -4 69 30 61 50 -3 9 -19 19 -36 23 l-31 7 20
25 c40 51 9 133 -50 133 -19 0 -36 -9 -49 -26z m83 -12 c9 -14 -12 -35 -28
-29 -23 9 -20 37 3 37 11 0 22 -4 25 -8z m43 -148 c-3 -3 -12 -4 -19 -1 -8 3
-5 6 6 6 11 1 17 -2 13 -5z"/>
<path d="M1366 1435 c-37 -34 -37 -95 1 -125 74 -58 165 59 98 125 -31 32 -65
32 -99 0z m69 -25 c0 -22 -29 -18 -33 3 -3 14 1 18 15 15 10 -2 18 -10 18 -18z"/>
<path d="M1291 1250 c-26 -23 -100 -27 -119 -8 -6 6 -15 8 -19 4 -13 -13 29
-36 66 -36 37 0 101 32 101 50 0 13 -1 13 -29 -10z"/>
<path d="M770 1101 c0 -5 7 -15 17 -22 15 -13 15 -12 4 9 -12 23 -21 28 -21
13z"/>
<path d="M965 1075 c-53 -17 -23 -18 40 0 29 8 39 14 25 14 -14 0 -43 -6 -65
-14z"/>
<path d="M700 948 c0 -5 5 -18 10 -29 15 -27 40 -24 40 5 0 17 -7 25 -25 28
-14 3 -25 1 -25 -4z"/>
</g>
</svg>
